HIERARCHY
ROOT Hips
{
	OFFSET 0.000000 0.000000 0.000000
	CHANNELS 6 Xposition Yposition Zposition Xrotation Yrotation Zrotation
	JOINT Spine
	{
		OFFSET 0.000000 0.042231 0.063346
		CHANNELS 3 Xrotation Yrotation Zrotation
		JOINT Spine1
		{
			OFFSET 0.000000 0.014667 0.083179
			CHANNELS 3 Xrotation Yrotation Zrotation
			JOINT Spine2
			{
				OFFSET 0.000000 0.007361 0.084141
				CHANNELS 3 Xrotation Yrotation Zrotation
				JOINT Spine3
				{
					OFFSET 0.000000 0.000000 0.084462
					CHANNELS 3 Xrotation Yrotation Zrotation
					JOINT Neck
					{
						OFFSET 0.000000 -0.031673 0.221713
						CHANNELS 3 Xrotation Yrotation Zrotation
						JOINT Head
						{
							OFFSET 0.000000 -0.020167 0.114371
							CHANNELS 3 Xrotation Yrotation Zrotation
							End Site
							{
								OFFSET 0.000000 0.000000 0.000000
							}
						}
					}
					JOINT RightShoulder
					{
						OFFSET -0.029161 -0.048602 0.157471
						CHANNELS 3 Xrotation Yrotation Zrotation
						JOINT RightArm
						{
							OFFSET -0.144834 0.000000 0.000000
							CHANNELS 3 Xrotation Yrotation Zrotation
							JOINT RightForeArm
							{
								OFFSET -0.274949 0.000000 0.000000
								CHANNELS 3 Xrotation Yrotation Zrotation
								JOINT RightHand
								{
									OFFSET -0.254725 0.000000 0.000000
									CHANNELS 3 Xrotation Yrotation Zrotation
									JOINT RightHandEnd
									{
										OFFSET -0.068160 0.000000 0.000000
										CHANNELS 3 Xrotation Yrotation Zrotation
										End Site
										{
											OFFSET 0.000000 0.000000 0.000000
										}
									}
									JOINT RightHandThumb1
									{
										OFFSET -0.027264 -0.045440 -0.018176
										CHANNELS 3 Xrotation Yrotation Zrotation
										End Site
										{
											OFFSET 0.000000 0.000000 0.000000
										}
									}
								}
							}
						}
					}
					JOINT LeftShoulder
					{
						OFFSET 0.029161 -0.048602 0.157471
						CHANNELS 3 Xrotation Yrotation Zrotation
						JOINT LeftArm
						{
							OFFSET 0.144834 0.000000 0.000000
							CHANNELS 3 Xrotation Yrotation Zrotation
							JOINT LeftForeArm
							{
								OFFSET 0.274949 0.000000 0.000000
								CHANNELS 3 Xrotation Yrotation Zrotation
								JOINT LeftHand
								{
									OFFSET 0.254725 0.000000 0.000000
									CHANNELS 3 Xrotation Yrotation Zrotation
									JOINT LeftHandEnd
									{
										OFFSET 0.068160 0.000000 0.000000
										CHANNELS 3 Xrotation Yrotation Zrotation
										End Site
										{
											OFFSET 0.000000 0.000000 0.000000
										}
									}
									JOINT LeftHandThumb1
									{
										OFFSET 0.027264 -0.045440 -0.018176
										CHANNELS 3 Xrotation Yrotation Zrotation
										End Site
										{
											OFFSET 0.000000 0.000000 0.000000
										}
									}
								}
							}
						}
					}
				}
			}
		}
	}
	JOINT RightUpLeg
	{
		OFFSET -0.086512 0.000000 -0.025273
		CHANNELS 3 Xrotation Yrotation Zrotation
		JOINT RightLeg
		{
			OFFSET 0.000000 0.000000 -0.433119
			CHANNELS 3 Xrotation Yrotation Zrotation
			JOINT RightFoot
			{
				OFFSET 0.000000 0.000000 -0.404688
				CHANNELS 3 Xrotation Yrotation Zrotation
				JOINT RightToeBase
				{
					OFFSET 0.000000 -0.126496 -0.046041
					CHANNELS 3 Xrotation Yrotation Zrotation
					End Site
					{
						OFFSET 0.000000 0.000000 0.000000
					}
				}
			}
		}
	}
	JOINT LeftUpLeg
	{
		OFFSET 0.086512 0.000000 -0.025273
		CHANNELS 3 Xrotation Yrotation Zrotation
		JOINT LeftLeg
		{
			OFFSET 0.000000 0.000000 -0.433119
			CHANNELS 3 Xrotation Yrotation Zrotation
			JOINT LeftFoot
			{
				OFFSET 0.000000 0.000000 -0.404688
				CHANNELS 3 Xrotation Yrotation Zrotation
				JOINT LeftToeBase
				{
					OFFSET 0.000000 -0.126496 -0.046041
					CHANNELS 3 Xrotation Yrotation Zrotation
					End Site
					{
						OFFSET 0.000000 0.000000 0.000000
					}
				}
			}
		}
	}
}
MOTION
Frames: 7
Frame Time: 0.033333
0.116911 -1.290538 0.881367 -0.991600 1.396100 174.769000 2.266000 0.422200 -0.670900 1.607300 -0.230700 -0.189400 1.863000 -2.271600 -0.898600 0.987900 -0.577600 0.541900 3.561400 1.038900 5.490500 -4.606800 5.345600 8.297500 9.954300 -5.365900 -2.495300 50.115100 -45.128500 52.649400 0.000000 0.000000 24.887900 -6.174900 17.880700 0.144000 0.000000 0.000000 0.000000 0.000000 0.000000 0.000000 13.861000 3.317800 -2.705700 41.191700 34.139100 -54.651600 0.000000 0.000000 -47.897900 -18.281800 -19.674600 -5.970400 0.000000 0.000000 0.000000 0.000000 0.000000 0.000000 -15.297900 -0.371700 -8.739700 21.196800 0.000000 0.000000 -15.744300 3.702500 -23.210400 0.847700 0.000000 0.000000 -6.556600 1.181100 11.340700 44.235100 0.000000 0.000000 -14.828500 4.994600 34.542600 -17.411100 0.000000 0.000000 
0.124396 -1.262062 0.882899 -1.376100 0.832600 174.943400 2.531700 -0.184000 -0.149800 1.823100 -0.329500 -0.169500 1.894000 -2.240500 -0.337800 0.947000 -0.575500 0.622600 3.203400 1.150200 5.312400 -4.589200 5.226600 7.666000 9.937600 -5.056100 -2.034000 49.688500 -45.026000 52.398900 0.000000 0.000000 26.289100 -6.048500 18.306400 0.442500 0.000000 0.000000 0.000000 0.000000 0.000000 0.000000 14.337300 3.259300 -2.319200 41.995600 34.836700 -55.073400 0.000000 0.000000 -47.131400 -17.406800 -19.546200 -5.352200 0.000000 0.000000 0.000000 0.000000 0.000000 0.000000 -12.876300 -1.146400 -10.005600 19.937900 0.000000 0.000000 -17.574500 3.200400 -22.599600 0.701100 0.000000 0.000000 -13.104000 0.268100 10.784200 54.095400 0.000000 0.000000 -10.995900 2.373700 34.200400 -19.150100 0.000000 0.000000 
0.130541 -1.233396 0.883923 -1.808100 0.703200 174.858400 2.808100 -0.418200 0.314200 2.002000 -0.390000 -0.149000 2.047200 -2.154900 0.443800 0.948800 -0.596500 0.743400 2.717800 1.332000 5.192300 -4.647900 5.207500 7.012100 9.896500 -4.874100 -1.638300 48.491700 -44.458200 51.516400 0.000000 0.000000 28.660600 -6.085900 18.649200 0.840500 0.000000 0.000000 0.000000 0.000000 0.000000 0.000000 15.013400 3.370800 -1.861600 42.855000 35.534100 -55.322800 0.000000 0.000000 -45.959200 -16.466900 -19.576200 -4.797100 0.000000 0.000000 0.000000 0.000000 0.000000 0.000000 -10.619000 -1.574700 -10.567700 18.672700 0.000000 0.000000 -19.408200 2.982700 -22.063500 0.603500 0.000000 0.000000 -19.502300 0.137800 10.883700 59.257000 0.000000 0.000000 -11.687600 1.826600 31.439500 -18.823500 0.000000 0.000000 
0.136439 -1.203340 0.884288 -2.090600 0.687500 174.465800 3.118500 -0.588700 0.774400 2.237100 -0.375100 -0.105900 2.284200 -1.926700 1.335300 0.969600 -0.625400 0.896300 2.374400 1.510600 5.092900 -4.793900 5.166800 6.441000 9.835900 -4.848700 -1.343400 46.734700 -43.634500 50.449100 0.000000 0.000000 31.285000 -6.152700 19.003300 1.231100 0.000000 0.000000 0.000000 0.000000 0.000000 0.000000 15.812400 3.394800 -1.312400 44.045900 36.332000 -55.551600 0.000000 0.000000 -44.261200 -16.668100 -19.779800 -4.574400 0.000000 0.000000 0.000000 0.000000 0.000000 0.000000 -8.238700 -1.979900 -10.419100 17.415900 0.000000 0.000000 -21.076100 2.852100 -21.775500 -0.029900 0.000000 0.000000 -24.882700 0.159600 11.697500 59.352600 0.000000 0.000000 -14.069500 2.849200 28.740900 -17.265700 0.000000 0.000000 
0.142461 -1.170884 0.883282 -2.041700 0.618700 173.958200 3.544500 -0.787800 1.278500 2.593200 -0.314400 -0.058300 2.482800 -1.620100 2.132500 0.978800 -0.621000 0.992800 2.346400 1.671200 5.044800 -4.922200 5.074100 5.964500 9.722100 -4.786100 -1.003500 44.789900 -42.913800 49.396500 0.000000 0.000000 34.061100 -6.012200 19.479600 1.520900 0.000000 0.000000 0.000000 0.000000 0.000000 0.000000 16.790300 3.180900 -0.601100 45.601500 37.246000 -55.866100 0.000000 0.000000 -42.227900 -17.436300 -19.672700 -4.119800 0.000000 0.000000 0.000000 0.000000 0.000000 0.000000 -5.370000 -2.354400 -10.339100 16.236900 0.000000 0.000000 -22.501400 2.783300 -21.330200 -0.201100 0.000000 0.000000 -28.825800 0.250500 12.565800 55.458900 0.000000 0.000000 -15.147500 3.243600 27.147200 -16.589600 0.000000 0.000000 
0.148880 -1.136472 0.879843 -1.985100 0.142500 173.497600 3.943300 -1.193600 1.815900 2.948500 -0.352100 -0.023200 2.597900 -1.385300 2.767700 0.997700 -0.612500 1.053700 2.485300 1.866100 5.067500 -5.009100 5.014000 5.541500 9.533200 -4.568500 -0.613000 42.717800 -42.308100 48.176800 0.000000 0.000000 37.336000 -6.007100 19.889300 1.704900 0.000000 0.000000 0.000000 0.000000 0.000000 0.000000 18.031300 2.841700 0.213600 47.222900 38.160100 -56.107000 0.000000 0.000000 -40.378600 -17.270800 -19.181900 -3.107600 0.000000 0.000000 0.000000 0.000000 0.000000 0.000000 -2.351300 -3.066700 -10.450800 15.180700 0.000000 0.000000 -24.072100 2.797700 -20.782800 0.486000 0.000000 0.000000 -31.780800 0.013600 12.949000 49.008900 0.000000 0.000000 -14.264400 3.850900 25.278500 -16.840100 0.000000 0.000000 
0.155814 -1.100247 0.873869 -2.092800 -0.933300 172.864300 4.271300 -1.991200 2.399200 3.208400 -0.509400 0.004200 2.674700 -1.218900 3.447600 1.074600 -0.639200 1.142300 2.551500 2.155300 5.163500 -5.160300 4.984300 5.156800 9.241200 -4.174300 -0.304100 40.589000 -41.675100 46.883000 0.000000 0.000000 41.048600 -6.413300 20.166400 1.826700 0.000000 0.000000 0.000000 0.000000 0.000000 0.000000 19.515300 2.531900 1.101500 48.606500 39.104500 -56.047000 0.000000 0.000000 -39.216400 -16.013400 -18.747600 -2.146200 0.000000 0.000000 0.000000 0.000000 0.000000 0.000000 0.630000 -4.380800 -10.189200 14.213900 0.000000 0.000000 -25.953600 2.361900 -20.420800 0.286700 0.000000 0.000000 -33.895400 -1.018700 13.083000 40.986500 0.000000 0.000000 -11.535800 7.219200 22.259300 -16.460200 0.000000 0.000000 
